<mxfile host="app.diagrams.net" modified="2021-10-09T19:09:55.582Z" agent="5.0 (X11)" etag="eY6D7qxve2TPkea_oONR" version="15.5.0" type="github">
  <diagram id="wUzewB1sdcUzTNdC75Po" name="Page-1">
    <mxGraphModel dx="942" dy="555" grid="1" gridSize="10" guides="1" tooltips="1" connect="1" arrows="1" fold="1" page="1" pageScale="1" pageWidth="827" pageHeight="1169" math="0" shadow="0">
      <root>
        <mxCell id="0" />
        <mxCell id="1" parent="0" />
        <mxCell id="-iUX2kpL5e2QwpAdBYs0-2" value="" style="shape=mxgraph.signs.tech.usb;html=1;pointerEvents=1;fillColor=#000000;strokeColor=none;verticalLabelPosition=bottom;verticalAlign=top;align=center;sketch=0;rotation=90;" vertex="1" parent="1">
          <mxGeometry x="414" y="512" width="16.67" height="38" as="geometry" />
        </mxCell>
        <mxCell id="-iUX2kpL5e2QwpAdBYs0-3" value="" style="shape=mxgraph.signs.tech.radio;html=1;pointerEvents=1;fillColor=#000000;strokeColor=none;verticalLabelPosition=bottom;verticalAlign=top;align=center;sketch=0;" vertex="1" parent="1">
          <mxGeometry x="700" y="512" width="99" height="56" as="geometry" />
        </mxCell>
        <mxCell id="-iUX2kpL5e2QwpAdBYs0-4" value="" style="verticalLabelPosition=bottom;verticalAlign=top;html=1;shape=mxgraph.basic.flash;fillColor=#fff2cc;strokeColor=#d6b656;" vertex="1" parent="1">
          <mxGeometry x="780" y="520" width="30" height="40" as="geometry" />
        </mxCell>
      </root>
    </mxGraphModel>
  </diagram>
</mxfile>
